<svg width="30" height="30" viewBox="0 0 30 30" fill="none" xmlns="http://www.w3.org/2000/svg">
<path fill-rule="evenodd" clip-rule="evenodd" d="M5.45516 19.2206C7.31299 18.5977 9.81027 18.4014 12.4354 18.4014C15.0758 18.4014 17.5737 18.6053 19.4287 19.2361C20.359 19.5525 21.1677 19.9893 21.7486 20.5981C22.3421 21.2201 22.6756 21.9996 22.6756 22.9344C22.6756 23.8704 22.3395 24.6488 21.7428 25.2681C21.1591 25.8739 20.3474 26.3067 19.4158 26.6191C17.5579 27.2421 15.0607 27.4388 12.4354 27.4388C9.79503 27.4388 7.29715 27.2349 5.44221 26.6041C4.51186 26.2877 3.70316 25.8509 3.12226 25.2421C2.52873 24.6201 2.19531 23.8406 2.19531 22.9058C2.19531 21.9696 2.53137 21.1909 3.12808 20.5715C3.71177 19.9656 4.52347 19.5329 5.45516 19.2206ZM3.91853 21.333C3.51485 21.752 3.29287 22.2593 3.29287 22.9058C3.29287 23.5532 3.51392 24.0627 3.91631 24.4844C4.33135 24.9194 4.96005 25.2808 5.79558 25.565C7.4724 26.1352 9.82019 26.3413 12.4354 26.3413C15.0373 26.3413 17.3857 26.1423 19.0668 25.5785C19.9045 25.2976 20.5356 24.9392 20.9524 24.5066C21.3561 24.0876 21.578 23.5805 21.578 22.9344C21.578 22.287 21.3569 21.7775 20.9546 21.3558C20.5395 20.9208 19.9108 20.5594 19.0753 20.2752C17.3985 19.705 15.0507 19.4989 12.4354 19.4989C9.8335 19.4989 7.48511 19.6976 5.80404 20.2612C4.96629 20.5421 4.33523 20.9004 3.91853 21.333Z" fill="#213D37"/>
<path fill-rule="evenodd" clip-rule="evenodd" d="M5.6748 8.22376C5.6748 4.47212 8.68507 1.46338 12.4352 1.46338C16.1867 1.46338 19.1956 4.4722 19.1956 8.22376C19.1956 11.9739 16.1868 14.9841 12.4352 14.9841C8.68499 14.9841 5.6748 11.9739 5.6748 8.22376ZM12.4352 2.56094C9.29108 2.56094 6.77237 5.07845 6.77237 8.22376C6.77237 11.3678 9.29115 13.8866 12.4352 13.8866C15.5805 13.8866 18.098 11.3679 18.098 8.22376C18.098 5.07837 15.5806 2.56094 12.4352 2.56094Z" fill="#213D37"/>
<path fill-rule="evenodd" clip-rule="evenodd" d="M25.1181 9.51221C25.4212 9.51221 25.6669 9.7579 25.6669 10.061V15.5138C25.6669 15.8169 25.4212 16.0626 25.1181 16.0626C24.815 16.0626 24.5693 15.8169 24.5693 15.5138V10.061C24.5693 9.7579 24.815 9.51221 25.1181 9.51221Z" fill="#213D37"/>
<path fill-rule="evenodd" clip-rule="evenodd" d="M21.7896 12.7875C21.7896 12.4845 22.0352 12.2388 22.3383 12.2388H27.8999C28.203 12.2388 28.4487 12.4845 28.4487 12.7875C28.4487 13.0906 28.203 13.3363 27.8999 13.3363H22.3383C22.0352 13.3363 21.7896 13.0906 21.7896 12.7875Z" fill="#213D37"/>
</svg>
