<svg width="40" height="40" viewBox="0 0 40 40" fill="none" xmlns="http://www.w3.org/2000/svg">
<path d="M26.5625 6C26.5625 4.0575 28.12 2.5 30.0625 2.5C32.005 2.5 33.5625 4.0575 33.5625 6C33.5625 7.9425 32.005 9.5 30.0625 9.5C28.12 9.5 26.5625 7.9425 26.5625 6ZM33.5625 37.5V27H37.9375L33.4925 13.6475C33.2584 12.9505 32.8117 12.3444 32.2153 11.9143C31.6189 11.4843 30.9028 11.252 30.1675 11.25H29.9575C29.2216 11.2493 28.5042 11.4806 27.9073 11.911C27.3104 12.3415 26.8643 12.9491 26.6325 13.6475L25.1275 18.1625C27.0175 19.2125 28.3125 21.19 28.3125 23.5V37.5H33.5625ZM20.4375 19.125C21.89 19.125 23.0625 17.9525 23.0625 16.5C23.0625 15.0475 21.89 13.875 20.4375 13.875C18.985 13.875 17.8125 15.0475 17.8125 16.5C17.8125 17.9525 18.985 19.125 20.4375 19.125ZM8.1875 9.5C10.13 9.5 11.6875 7.9425 11.6875 6C11.6875 4.0575 10.13 2.5 8.1875 2.5C6.245 2.5 4.6875 4.0575 4.6875 6C4.6875 7.9425 6.245 9.5 8.1875 9.5ZM11.6875 37.5V25.25H14.3125V14.75C14.3125 12.825 12.7375 11.25 10.8125 11.25H5.5625C3.6375 11.25 2.0625 12.825 2.0625 14.75V25.25H4.6875V37.5H11.6875ZM23.0625 37.5V30.5H24.8125V23.5C24.8125 22.065 23.6225 20.875 22.1875 20.875H18.6875C17.2525 20.875 16.0625 22.065 16.0625 23.5V30.5H17.8125V37.5H23.0625Z" fill="#CBBDAE"/>
</svg>
