<svg width="157" height="157" viewBox="0 0 157 157" fill="none" xmlns="http://www.w3.org/2000/svg">
<circle cx="78.5" cy="78.5" r="78" fill="#213D37" stroke="#213D37"/>
<path d="M121.5 49.6802C121.491 49.3776 121.391 49.0848 121.212 48.8403C121.034 48.5958 120.785 48.411 120.5 48.3102C120.2 48.2202 113.17 46.0102 107.99 46.0102C102.326 45.9944 96.7393 47.3309 91.6954 49.9085C86.6515 52.4861 82.2957 56.2304 78.99 60.8302C75.6846 56.2246 71.3263 52.4758 66.2783 49.8962C61.2304 47.3165 55.6389 45.9807 49.97 46.0002C44.8 46.0002 37.38 48.2002 37.07 48.2902C36.7603 48.3829 36.4888 48.5731 36.296 48.8326C36.1032 49.0921 35.9994 49.4069 36 49.7302C36 67.5702 48.6 81.0302 65.3 81.0302C68.267 80.9124 71.2011 80.3633 74.01 79.4002C75.33 79.0202 76.58 78.6502 77.84 78.4002C78.4504 78.316 79.0696 78.316 79.68 78.4002C80.95 78.6702 82.19 79.0402 83.51 79.4002C86.3172 80.352 89.2478 80.8909 92.21 81.0002C97.8754 81.0422 103.425 79.3964 108.152 76.2727C112.878 73.1489 116.568 68.6886 118.75 63.4602V92.4602C118.75 92.858 118.908 93.2396 119.189 93.5209C119.471 93.8022 119.852 93.9602 120.25 93.9602C120.648 93.9602 121.029 93.8022 121.311 93.5209C121.592 93.2396 121.75 92.858 121.75 92.4602V50.4602C121.741 50.182 121.655 49.9117 121.5 49.6802V49.6802ZM92.21 78.0002C89.5276 77.8786 86.8769 77.37 84.34 76.4902C83.03 76.1102 81.67 75.7102 80.34 75.4202C79.314 75.2466 78.266 75.2466 77.24 75.4202C75.87 75.7102 74.51 76.1102 73.24 76.4902C70.6807 77.3765 68.006 77.8852 65.3 78.0002C50.66 78.0002 39.53 66.4002 39.02 50.8302C42.605 49.7982 46.295 49.1742 50.02 48.9702C55.5283 48.9674 60.9475 50.36 65.772 53.018C70.5966 55.6759 74.6692 59.5127 77.61 64.1702C77.7529 64.4683 77.9831 64.716 78.27 64.8802C78.4702 64.9933 78.6938 65.0589 78.9234 65.0719C79.153 65.0848 79.3825 65.0448 79.5942 64.9549C79.8059 64.865 79.994 64.7277 80.1442 64.5535C80.2943 64.3792 80.4024 64.1728 80.46 63.9502C83.4229 59.3525 87.4943 55.5737 92.2997 52.9613C97.1052 50.3489 102.49 48.9867 107.96 49.0002C111.535 49.193 115.073 49.8141 118.5 50.8502C117.99 66.4302 106.86 78.0002 92.21 78.0002Z" fill="#CBBDAE"/>
<path d="M91.6802 100.36C91.4968 100.278 91.2988 100.234 91.0979 100.23C90.897 100.226 90.6974 100.262 90.5109 100.337C90.3243 100.411 90.1547 100.523 90.012 100.664C89.8693 100.806 89.7565 100.974 89.6802 101.16C88.7836 103.302 87.2849 105.138 85.3657 106.445C83.4466 107.752 81.1894 108.474 78.868 108.524C76.5466 108.574 74.2605 107.949 72.2871 106.725C70.3137 105.502 68.7377 103.732 67.7502 101.63C67.5792 101.271 67.2723 100.994 66.8973 100.861C66.5222 100.728 66.1096 100.749 65.7502 100.92C65.3908 101.091 65.1142 101.398 64.981 101.773C64.8478 102.148 64.8692 102.561 65.0402 102.92C66.2752 105.546 68.2454 107.758 70.712 109.286C73.1786 110.815 76.0357 111.596 78.937 111.533C81.8382 111.471 84.6591 110.568 87.0577 108.935C89.4562 107.301 91.3294 105.007 92.4502 102.33C92.6081 101.967 92.6158 101.555 92.4715 101.186C92.3273 100.817 92.0428 100.52 91.6802 100.36V100.36Z" fill="#CBBDAE"/>
<path d="M78.2798 95.3099H78.6998C81.4298 95.3099 84.0598 93.9199 86.5298 91.1599C86.6741 91.0158 86.7875 90.8438 86.863 90.6544C86.9386 90.465 86.9747 90.2622 86.9692 90.0583C86.9637 89.8545 86.9168 89.6539 86.8311 89.4688C86.7455 89.2838 86.6231 89.1181 86.4713 88.9819C86.3195 88.8458 86.1415 88.742 85.9482 88.677C85.755 88.6119 85.5505 88.587 85.3472 88.6036C85.144 88.6203 84.9463 88.6782 84.7662 88.7739C84.5861 88.8695 84.4274 89.0009 84.2998 89.1599C82.2998 91.3399 80.3598 92.4099 78.4598 92.2999C75.4598 92.1599 73.3398 89.2999 73.3098 89.2999C73.0623 89.0405 72.73 88.8783 72.3731 88.8428C72.0163 88.8073 71.6586 88.9008 71.3648 89.1064C71.0709 89.3119 70.8605 89.6159 70.7715 89.9633C70.6825 90.3107 70.721 90.6784 70.8798 90.9999C70.9998 91.2099 73.8598 95.0799 78.2798 95.3099Z" fill="#CBBDAE"/>
<path d="M102.98 62.7903C100.98 65.0703 98.86 66.1703 96.86 66.0803C93.75 65.9303 91.49 63.0003 91.45 62.9003C91.2097 62.5945 90.8601 62.394 90.4749 62.341C90.0896 62.288 89.6989 62.3867 89.385 62.6163C89.0711 62.8459 88.8587 63.1883 88.7924 63.5715C88.7262 63.9547 88.8114 64.3487 89.03 64.6703C89.15 64.8403 92.11 68.8403 96.68 69.0703H97.11C99.93 69.0703 102.66 67.6303 105.21 64.7703C105.354 64.6262 105.468 64.4541 105.543 64.2647C105.619 64.0753 105.655 63.8725 105.649 63.6687C105.644 63.4648 105.597 63.2643 105.511 63.0792C105.426 62.8941 105.303 62.7284 105.151 62.5923C105 62.4562 104.822 62.3524 104.628 62.2873C104.435 62.2223 104.231 62.1973 104.027 62.214C103.824 62.2307 103.626 62.2886 103.446 62.3842C103.266 62.4799 103.108 62.6112 102.98 62.7703V62.7903Z" fill="#CBBDAE"/>
<path d="M65.3997 62.7903C63.3997 65.0703 61.2797 66.1703 59.2797 66.0803C56.1497 65.9303 53.9197 62.9503 53.8797 62.9003C53.6394 62.5945 53.2898 62.394 52.9046 62.341C52.5193 62.288 52.1285 62.3867 51.8147 62.6163C51.5008 62.8459 51.2883 63.1883 51.2221 63.5715C51.1559 63.9547 51.2411 64.3487 51.4597 64.6703C51.5797 64.8403 54.5397 68.8403 59.1097 69.0703H59.5397C62.3597 69.0703 65.0897 67.6303 67.6397 64.7703C67.7839 64.6262 67.8973 64.4541 67.9729 64.2647C68.0484 64.0753 68.0846 63.8725 68.0791 63.6687C68.0736 63.4648 68.0266 63.2643 67.941 63.0792C67.8554 62.8941 67.7329 62.7284 67.5811 62.5923C67.4293 62.4562 67.2514 62.3524 67.0581 62.2873C66.8648 62.2223 66.6603 62.1973 66.4571 62.214C66.2539 62.2307 66.0562 62.2886 65.8761 62.3842C65.696 62.4799 65.5373 62.6112 65.4097 62.7703L65.3997 62.7903Z" fill="#CBBDAE"/>
</svg>
