<svg width="157" height="157" viewBox="0 0 157 157" fill="none" xmlns="http://www.w3.org/2000/svg">
<circle cx="78.5" cy="78.5" r="78" fill="#213D37" stroke="#213D37"/>
<path d="M110.5 121H47.5003C47.1025 121 46.7209 120.842 46.4396 120.561C46.1583 120.279 46.0003 119.898 46.0003 119.5C45.971 112.61 48.0534 105.876 51.967 100.204C55.8807 94.5333 61.4378 90.1973 67.8903 87.78C68.0791 87.6971 68.2829 87.6541 68.4891 87.6535C68.6953 87.653 68.8994 87.6949 69.0886 87.7768C69.2778 87.8586 69.4482 87.9786 69.5889 88.1292C69.7297 88.2798 69.838 88.4579 69.9069 88.6522C69.9758 88.8465 70.0039 89.0529 69.9894 89.2586C69.975 89.4643 69.9183 89.6647 69.8229 89.8475C69.7275 90.0303 69.5955 90.1915 69.435 90.3209C69.2745 90.4504 69.0891 90.5454 68.8903 90.6C63.2597 92.718 58.3761 96.4446 54.8468 101.316C51.3175 106.188 49.2983 111.99 49.0403 118H108.96C108.707 111.929 106.652 106.072 103.058 101.173C99.4648 96.2737 94.4944 92.5549 88.7803 90.49C88.405 90.3574 88.0978 90.0811 87.9262 89.722C87.7546 89.3628 87.7327 88.9502 87.8653 88.575C87.9979 88.1997 88.2742 87.8924 88.6333 87.7209C88.9924 87.5493 89.405 87.5274 89.7803 87.66C96.3196 90.0215 101.967 94.3505 105.946 100.052C109.925 105.754 112.04 112.547 112 119.5C112 119.898 111.842 120.279 111.561 120.561C111.28 120.842 110.898 121 110.5 121Z" fill="#CBBDAE"/>
<path d="M79.3804 81C74.076 81 68.989 78.8929 65.2382 75.1421C61.4875 71.3914 59.3804 66.3043 59.3804 61C59.3804 60.6022 59.5384 60.2206 59.8197 59.9393C60.101 59.658 60.4825 59.5 60.8804 59.5C61.2782 59.5 61.6597 59.658 61.941 59.9393C62.2223 60.2206 62.3804 60.6022 62.3804 61C62.3804 65.5087 64.1714 69.8327 67.3596 73.0208C70.5477 76.2089 74.8717 78 79.3804 78C83.8891 78 88.2131 76.2089 91.4012 73.0208C94.5893 69.8327 96.3804 65.5087 96.3804 61C96.3804 60.6022 96.5384 60.2206 96.8197 59.9393C97.101 59.658 97.4825 59.5 97.8804 59.5C98.2782 59.5 98.6597 59.658 98.941 59.9393C99.2223 60.2206 99.3804 60.6022 99.3804 61C99.3804 63.6264 98.8631 66.2272 97.858 68.6537C96.8529 71.0802 95.3797 73.285 93.5225 75.1421C91.6653 76.9993 89.4606 78.4725 87.034 79.4776C84.6075 80.4827 82.0068 81 79.3804 81Z" fill="#CBBDAE"/>
<path d="M60.8804 63C60.4825 63 60.101 62.842 59.8197 62.5607C59.5384 62.2794 59.3804 61.8978 59.3804 61.5V41.5C59.3804 41.1022 59.5384 40.7206 59.8197 40.4393C60.101 40.158 60.4825 40 60.8804 40C61.2782 40 61.6597 40.158 61.941 40.4393C62.2223 40.7206 62.3804 41.1022 62.3804 41.5V61.5C62.3804 61.8978 62.2223 62.2794 61.941 62.5607C61.6597 62.842 61.2782 63 60.8804 63Z" fill="#CBBDAE"/>
<path d="M97.8804 63C97.4825 63 97.101 62.842 96.8197 62.5607C96.5384 62.2794 96.3804 61.8978 96.3804 61.5V41.5C96.3804 41.1022 96.5384 40.7206 96.8197 40.4393C97.101 40.158 97.4825 40 97.8804 40C98.2782 40 98.6597 40.158 98.941 40.4393C99.2223 40.7206 99.3804 41.1022 99.3804 41.5V61.5C99.3804 61.8978 99.2223 62.2794 98.941 62.5607C98.6597 62.842 98.2782 63 97.8804 63Z" fill="#CBBDAE"/>
<path d="M79.3804 46C71.9104 46 59.3804 45.42 59.3804 41.5C59.3804 37.58 71.9104 37 79.3804 37C86.8504 37 99.3804 37.58 99.3804 41.5C99.3804 45.42 86.8504 46 79.3804 46ZM63.5404 41.5C65.9304 42.2 71.2704 43 79.3804 43C87.4904 43 92.8304 42.2 95.2204 41.5C92.8304 40.8 87.4904 40 79.3804 40C71.2704 40 65.9304 40.8 63.5404 41.5Z" fill="#CBBDAE"/>
<path d="M79.3806 56.4599C73.3806 56.4599 59.3806 55.9999 59.3806 51.7899C59.3235 51.3921 59.4269 50.9879 59.6679 50.6663C59.9089 50.3446 60.2677 50.1319 60.6656 50.0749C61.0634 50.0179 61.4676 50.1212 61.7892 50.3622C62.1108 50.6032 62.3235 50.9621 62.3806 51.3599C63.5006 52.1399 69.2806 53.4599 79.4406 53.4599C89.6006 53.4599 95.3806 52.1399 96.4706 51.3599C96.5719 51.0124 96.7954 50.7133 97.1 50.5177C97.4045 50.3221 97.7695 50.2432 98.1277 50.2956C98.4858 50.348 98.813 50.5281 99.0487 50.8027C99.2845 51.0773 99.413 51.428 99.4106 51.7899C99.3806 55.9999 85.3806 56.4599 79.3806 56.4599Z" fill="#CBBDAE"/>
<path d="M74.6304 120.13C74.2325 120.13 73.851 119.972 73.5697 119.691C73.2884 119.409 73.1304 119.028 73.1304 118.63C73.1304 116.376 72.2348 114.214 70.6408 112.619C69.0467 111.025 66.8847 110.13 64.6304 110.13C62.376 110.13 60.214 111.025 58.62 112.619C57.0259 114.214 56.1304 116.376 56.1304 118.63C56.1304 119.028 55.9723 119.409 55.691 119.691C55.4097 119.972 55.0282 120.13 54.6304 120.13C54.2325 120.13 53.851 119.972 53.5697 119.691C53.2884 119.409 53.1304 119.028 53.1304 118.63C53.1304 115.58 54.342 112.655 56.4986 110.498C58.6553 108.341 61.5804 107.13 64.6304 107.13C67.6804 107.13 70.6054 108.341 72.7621 110.498C74.9188 112.655 76.1304 115.58 76.1304 118.63C76.1304 119.028 75.9723 119.409 75.691 119.691C75.4097 119.972 75.0282 120.13 74.6304 120.13Z" fill="#CBBDAE"/>
<path d="M66.8604 105H62.3804C61.9825 105 61.601 104.842 61.3197 104.561C61.0384 104.279 60.8804 103.898 60.8804 103.5C60.8804 103.102 61.0384 102.721 61.3197 102.439C61.601 102.158 61.9825 102 62.3804 102H66.8104C67.2082 102 67.5897 102.158 67.871 102.439C68.1523 102.721 68.3104 103.102 68.3104 103.5C68.3104 103.898 68.1523 104.279 67.871 104.561C67.5897 104.842 67.2082 105 66.8104 105H66.8604Z" fill="#CBBDAE"/>
<path d="M88.8804 98C88.7349 98.001 88.59 97.9808 88.4504 97.94L78.8804 95.07L69.3104 97.94C69.0862 98.0071 68.8494 98.0208 68.619 97.98C68.3886 97.9393 68.1709 97.8451 67.9834 97.7052C67.7958 97.5653 67.6436 97.3834 67.5389 97.1742C67.4342 96.9649 67.3799 96.734 67.3804 96.5V83.5C67.3799 83.266 67.4342 83.0352 67.5389 82.8259C67.6436 82.6166 67.7958 82.4348 67.9834 82.2948C68.1709 82.1549 68.3886 82.0608 68.619 82.02C68.8494 81.9792 69.0862 81.9929 69.3104 82.06L78.8804 84.93L88.4504 82.06C88.6746 81.9929 88.9113 81.9792 89.1417 82.02C89.3722 82.0608 89.5898 82.1549 89.7774 82.2948C89.9649 82.4348 90.1171 82.6166 90.2218 82.8259C90.3265 83.0352 90.3808 83.266 90.3804 83.5V96.5C90.3804 96.8979 90.2223 97.2794 89.941 97.5607C89.6597 97.842 89.2782 98 88.8804 98ZM78.8804 92C79.0259 91.9989 79.1707 92.0191 79.3104 92.06L87.3804 94.48V85.48L79.3104 87.9C79.0299 87.9846 78.7308 87.9846 78.4504 87.9L70.3804 85.52V94.52L78.4504 92.1C78.5879 92.0455 78.7329 92.0118 78.8804 92Z" fill="#CBBDAE"/>
<path d="M88.4801 70.4999C88.2168 70.5006 87.9581 70.4316 87.7301 70.2999L82.5301 67.2999C82.3594 67.2014 82.2098 67.0702 82.0897 66.9139C81.9697 66.7576 81.8816 66.5791 81.8306 66.3888C81.7795 66.1984 81.7664 65.9999 81.7921 65.8044C81.8177 65.609 81.8816 65.4206 81.9801 65.2499C82.0786 65.0791 82.2098 64.9295 82.3661 64.8095C82.5224 64.6894 82.7009 64.6014 82.8912 64.5503C83.0816 64.4992 83.2801 64.4861 83.4755 64.5118C83.671 64.5375 83.8594 64.6014 84.0301 64.6999L89.2301 67.6999C89.5166 67.8647 89.7405 68.1196 89.8672 68.4249C89.9939 68.7301 90.0162 69.0687 89.9307 69.388C89.8452 69.7072 89.6566 69.9893 89.3943 70.1904C89.132 70.3914 88.8106 70.5002 88.4801 70.4999Z" fill="#CBBDAE"/>
<path d="M70.2805 70.4999C69.95 70.5002 69.6286 70.3914 69.3663 70.1904C69.104 69.9893 68.9154 69.7072 68.8299 69.388C68.7444 69.0687 68.7667 68.7301 68.8934 68.4249C69.0201 68.1196 69.244 67.8647 69.5305 67.6999L74.7305 64.6999C74.9012 64.6014 75.0896 64.5375 75.2851 64.5118C75.4805 64.4861 75.679 64.4992 75.8694 64.5503C76.0597 64.6014 76.2382 64.6894 76.3945 64.8095C76.5508 64.9295 76.682 65.0791 76.7805 65.2499C76.879 65.4206 76.9429 65.609 76.9685 65.8044C76.9942 65.9999 76.9811 66.1984 76.93 66.3888C76.879 66.5791 76.7909 66.7576 76.6709 66.9139C76.5508 67.0702 76.4012 67.2014 76.2305 67.2999L71.0305 70.2999C70.8025 70.4316 70.5438 70.5006 70.2805 70.4999Z" fill="#CBBDAE"/>
</svg>
