<svg width="40" height="40" viewBox="0 0 40 40" fill="none" xmlns="http://www.w3.org/2000/svg">
<path d="M27.2137 36.4726C26.5837 36.2176 26.1337 35.6476 26.0287 34.9726C25.9537 34.5826 26.0287 34.3126 26.6287 33.2326C28.8787 29.1826 30.0337 24.6076 29.9737 19.9726C30.0337 15.4726 28.9387 11.0776 26.7787 7.13262C26.4637 6.47262 26.1787 5.84262 25.9387 5.16762C26.0287 4.59762 26.3137 4.07262 26.7787 3.75762C27.4537 3.39762 28.2787 3.47262 28.8937 3.89262C29.3137 4.43262 29.6737 4.97262 29.9737 5.60262C31.5876 8.69397 32.687 12.0276 33.2287 15.4726C33.5737 18.1876 33.6187 20.9476 33.3637 23.6776C32.8987 27.1876 31.8637 30.5776 30.2737 33.7426C29.3137 35.6626 28.7737 36.4726 28.2037 36.4726H27.2137ZM20.6737 33.1576C19.8187 32.9176 19.2787 32.0476 19.4587 31.1776C19.4587 30.9976 19.9237 30.1726 20.3437 29.3326C22.1137 25.9276 22.8787 22.0876 22.5337 18.2626C22.3237 15.5176 21.5287 12.8476 20.2237 10.4326C19.2787 8.54262 19.2187 8.24262 19.7737 7.43262C20.4337 6.69762 21.5287 6.59262 22.3387 7.22262C23.4187 8.81262 24.2737 10.5526 24.9037 12.3826C26.8237 18.0676 26.5237 24.2626 24.0637 29.7226C22.8037 32.5576 21.9187 33.4726 20.6737 33.0826V33.1576ZM13.9237 29.8126C13.6566 29.6927 13.4197 29.5147 13.2302 29.2915C13.0408 29.0683 12.9036 28.8056 12.8287 28.5226C12.8287 28.2226 12.8287 27.8326 13.5037 26.6326C14.6033 24.639 15.18 22.3994 15.18 20.1226C15.18 17.8459 14.6033 15.6062 13.5037 13.6126C12.5287 11.7226 12.5287 11.3326 13.3237 10.6126C13.6087 10.2826 14.0287 10.1176 14.4787 10.1776C15.4387 10.1776 15.9787 10.6426 16.7887 12.3376C18.0641 14.6793 18.7247 17.3062 18.7087 19.9726C18.7687 22.6876 18.1087 25.3876 16.8037 27.7726C15.9937 29.3476 15.5887 29.7226 14.7787 29.8576C14.4937 29.8876 14.1937 29.8576 13.9237 29.7226V29.8126ZM7.60871 26.6176C7.11371 26.3776 6.72371 25.9726 6.52871 25.4476C6.37871 24.9226 6.52871 24.4726 7.12871 23.5126C7.87871 22.4926 8.23871 21.2326 8.16371 19.9726C8.26871 18.6976 7.92371 17.4376 7.18871 16.3876C6.93974 16.0095 6.71914 15.6134 6.52871 15.2026C6.36371 14.2576 6.99371 13.3576 8.02871 13.1776C8.83871 13.0276 9.40871 13.3726 10.1587 14.5126C11.2229 16.132 11.7899 18.0274 11.7899 19.9651C11.7899 21.9029 11.2229 23.7982 10.1587 25.4176C9.39371 26.5726 8.52371 26.9176 7.62371 26.6176H7.60871Z" fill="#CBBDAE"/>
</svg>
