<svg width="40" height="40" viewBox="0 0 40 40" fill="none" xmlns="http://www.w3.org/2000/svg">
<path d="M3.79688 9.70833L15.1233 20.7917H3.79688V25.5417H19.9844L31.327 36.625L33.3686 34.6458L5.82234 7.72917L3.79688 9.70833ZM33.7737 20.7917H36.2043V25.5417H33.7737V20.7917ZM29.7228 20.7917H32.1534V25.5417H29.7228V20.7917ZM31.1001 7.935C32.1047 6.96917 32.7205 5.63917 32.7205 4.16667H30.2899C30.2899 5.78167 28.945 7.09583 27.2922 7.09583V9.47083C30.9219 9.47083 33.7737 12.3683 33.7737 15.915V19.2083H36.2043V15.915C36.2043 12.3842 34.1302 9.34417 31.1001 7.935ZM24.0515 13.9833H26.5307C28.2321 13.9833 29.7228 15.155 29.7228 17.2292V19.2083H32.1534V16.6908C32.1534 13.8408 29.5608 11.6875 26.5307 11.6875H24.0515C22.3987 11.6875 21.0538 10.1358 21.0538 8.52083C21.0538 6.90583 22.3987 5.75 24.0515 5.75V3.375C22.6118 3.375 21.2311 3.93383 20.2132 4.92855C19.1952 5.92328 18.6233 7.27241 18.6233 8.67917C18.6233 10.0859 19.1952 11.4351 20.2132 12.4298C21.2311 13.4245 22.6118 13.9833 24.0515 13.9833ZM28.1024 25.4308V20.7917H23.3547L28.1024 25.4308Z" fill="#CBBDAE"/>
</svg>
