<svg width="107" height="68" viewBox="0 0 107 68" fill="none" xmlns="http://www.w3.org/2000/svg">
<path d="M53.6577 43.4339C53.3758 43.4656 53.094 43.4814 52.8121 43.4814C52.5302 43.5131 52.264 43.5289 52.0134 43.5289C50.6353 43.5289 49.4452 43.3705 48.443 43.0537C47.4407 42.7369 46.5011 42.3726 45.6242 41.9607C45.0917 42.626 44.481 43.2913 43.7919 43.9566C43.1342 44.6536 42.3199 45.3347 41.349 46L36.651 43.624L32.047 36.9236C33.4251 35.9098 34.4273 35.1019 35.0537 34.5C35.6801 33.8981 36.0716 33.5021 36.2282 33.312V27.3244L32.6107 25.5186V17.8202L42.0537 16.9649L37.4027 14.5413C37.4027 14.5413 37.1365 14.1612 36.604 13.4008C36.1029 12.6088 35.4295 11.6426 34.5839 10.5021C33.7696 9.36157 32.9083 8.25276 32 7.17562L37.8255 1.75827L42.5235 4.1343L42.8993 4.56198L46.3758 4.22934C46.2506 4.00758 46.094 3.75413 45.906 3.46901C45.7494 3.15221 45.5459 2.77204 45.2953 2.32851L52.7651 0.427686L57.4631 2.80372L57.698 3.23141H57.8389C58.1521 2.47108 58.4966 1.39394 58.8725 0L66.7181 0.475206L71.4161 2.85124C71.3848 2.94628 71.3535 3.04132 71.3221 3.13636C71.2908 3.19972 71.2595 3.26309 71.2282 3.32645L73.7181 4.6095V11.4525L72.2617 11.595V32.5992L74 33.4545L72.4027 41.8182L53.6577 43.4339ZM57.3221 10.9773C57.3848 10.8189 57.4787 10.5496 57.604 10.1694C57.7606 9.78926 57.8389 9.59917 57.8389 9.59917L68.5503 8.64876V2.7562L65.1208 3.08884C65.3087 2.74036 65.481 2.37603 65.6376 1.99587C65.7942 1.6157 65.9351 1.26722 66.0604 0.950412L59.2013 0.522727C58.9195 1.66322 58.5749 2.72452 58.1678 3.70661L53.7517 4.08678C53.6264 3.64325 53.4541 3.1522 53.2349 2.61364C53.0157 2.04339 52.7808 1.50482 52.5302 0.997935L46 2.66116C46.2506 3.073 46.4541 3.45317 46.6107 3.80165C46.7987 4.11846 46.9553 4.40358 47.0805 4.65702L43.1342 5.03719V10.9298L51.1678 10.2169C51.1678 10.2169 51.0738 10.407 50.8859 10.7872C50.7293 11.1674 50.6197 11.4366 50.557 11.595L44.7785 12.1178V32.5517L67.094 30.5558V10.1219L57.3221 10.9773ZM42.8523 9.02893C42.8523 9.02893 42.6018 8.68044 42.1007 7.98347C41.6309 7.2865 41.0045 6.43113 40.2215 5.41736C39.4698 4.3719 38.6555 3.37397 37.7785 2.42355L32.6107 7.22314C33.4564 8.20524 34.2394 9.20317 34.9597 10.2169C35.7114 11.2307 36.3065 12.0861 36.745 12.7831C37.2148 13.48 37.4497 13.8285 37.4497 13.8285L42.8523 9.02893ZM51.1678 16.2996L60.7047 15.4442V16.5847L51.1678 17.4401V16.2996ZM48.9128 33.6446C48.5369 33.6763 48.1767 33.708 47.8322 33.7397C47.519 33.7397 47.2215 33.7397 46.9396 33.7397C45.7494 33.7397 44.9038 33.5813 44.4027 33.2645C43.9016 32.9477 43.4631 32.4566 43.0873 31.7913V17.345L33.0805 18.2479V24.9959L36.698 24.6632V33.4545C36.698 33.4545 36.4004 33.7872 35.8054 34.4525C35.2103 35.1178 34.1611 35.989 32.6577 37.0661L36.745 42.9587C37.6219 42.3567 38.4206 41.6915 39.1409 40.9628C39.8613 40.2342 40.4877 39.5372 41.0201 38.8719C41.7405 39.4105 42.6018 39.8382 43.604 40.155C44.6063 40.5034 45.8121 40.6777 47.2215 40.6777C47.472 40.6777 47.7383 40.6618 48.0201 40.6302C48.302 40.6302 48.5996 40.6143 48.9128 40.5826L67.2819 39.0145L68.6913 31.6488L48.9128 33.6446ZM51.1678 21.1467L60.7047 20.2913V21.4318L51.1678 22.2872V21.1467ZM51.1678 26.0413L60.7047 25.186V26.3264L51.1678 27.1818V26.0413Z" fill="white"/>
<path d="M0 67.8895H3.50745C6.28362 67.8895 8.11183 65.831 8.11183 63.1371C8.11183 60.1668 5.87735 58.2189 3.10118 58.2189H0V67.8895ZM3.10118 58.7577C5.17315 58.7577 6.70343 60.4708 6.70343 63.1509C6.70343 65.7067 5.28149 67.3507 3.50745 67.3507H1.35423V58.7577H3.10118Z" fill="white"/>
<path d="M16.5576 67.8895H18.0878L13.6595 58.2189H12.9147L8.74366 67.8895H9.43431L10.6937 65.0021H15.271L16.5576 67.8895ZM12.9824 59.8077L15.0408 64.4633H10.9375L12.9824 59.8077Z" fill="white"/>
<path d="M18.727 63.0542C18.727 65.8863 20.7583 68 23.5345 68C26.3106 68 28.342 65.8863 28.342 63.0542C28.342 60.2221 26.3106 58.1222 23.5345 58.1222C20.7583 58.1222 18.727 60.2221 18.727 63.0542ZM20.1354 63.0542C20.1354 60.4431 21.5844 58.6196 23.5345 58.6196C25.4981 58.6196 26.9471 60.4431 26.9471 63.0542C26.9471 65.6652 25.4981 67.5027 23.5345 67.5027C21.5844 67.5027 20.1354 65.6652 20.1354 63.0542Z" fill="white"/>
<path d="M34.0541 67.8895H37.5615C40.3377 67.8895 42.1659 65.831 42.1659 63.1371C42.1659 60.1668 39.9314 58.2189 37.1553 58.2189H34.0541V67.8895ZM37.1553 58.7577C39.2272 58.7577 40.7575 60.4708 40.7575 63.1509C40.7575 65.7067 39.3356 67.3507 37.5615 67.3507H35.4083V58.7577H37.1553Z" fill="white"/>
<path d="M44.2505 67.8895H51.0893V67.3507H45.6047V63.22H50.5476V62.6812H45.6047V58.7577H50.9539V58.2189H44.2505V67.8895ZM46.9183 57.3071L49.4371 55H48.0017L46.3901 57.3071H46.9183Z" fill="white"/>
<path d="M56.7215 67.8895H58.0758V63.6068H59.7144L62.5176 67.8895H63.9802L61.1092 63.4963C62.5582 63.2062 63.4656 62.2944 63.4656 60.9129C63.4656 59.2274 62.0707 58.2189 59.9852 58.2189H56.7215V67.8895ZM59.6467 58.7577C61.1228 58.7577 62.0572 59.5313 62.0572 60.9267C62.0572 62.322 61.1228 63.068 59.6602 63.068H58.0758V58.7577H59.6467Z" fill="white"/>
<path d="M64.9612 63.0542C64.9612 65.8863 66.9925 68 69.7687 68C72.5448 68 74.5762 65.8863 74.5762 63.0542C74.5762 60.2221 72.5448 58.1222 69.7687 58.1222C66.9925 58.1222 64.9612 60.2221 64.9612 63.0542ZM66.3696 63.0542C66.3696 60.4431 67.8186 58.6196 69.7687 58.6196C71.7323 58.6196 73.1813 60.4431 73.1813 63.0542C73.1813 65.6652 71.7323 67.5027 69.7687 67.5027C67.8186 67.5027 66.3696 65.6652 66.3696 63.0542Z" fill="white"/>
<path d="M76.1362 63.0542C76.1362 65.8863 78.1675 68 80.9437 68C83.7199 68 85.7512 65.8863 85.7512 63.0542C85.7512 60.2221 83.7199 58.1222 80.9437 58.1222C78.1675 58.1222 76.1362 60.2221 76.1362 63.0542ZM77.5446 63.0542C77.5446 60.4431 78.9936 58.6196 80.9437 58.6196C82.9073 58.6196 84.3563 60.4431 84.3563 63.0542C84.3563 65.6652 82.9073 67.5027 80.9437 67.5027C78.9936 67.5027 77.5446 65.6652 77.5446 63.0542Z" fill="white"/>
<path d="M89.2613 58.2189H87.8529V67.8895H88.3946V59.6419L92.051 67.475H92.8771L96.3439 59.6281V67.8895H97.6981V58.2189H96.3439V58.288L92.85 66.0521L89.2613 58.2189Z" fill="white"/>
<path d="M101.326 60.2221C101.326 59.2136 102.057 58.5919 103.303 58.6196C104.725 58.6472 105.443 59.5037 105.443 60.8438H106.81C106.783 59.0893 105.578 58.1222 103.289 58.1222C101.028 58.1222 99.9851 59.0616 99.9851 60.6089C99.9851 62.17 101.096 62.6812 102.802 63.4825C104.914 64.4772 105.646 64.8087 105.646 65.8587C105.646 67.0329 104.711 67.5027 103.601 67.5027C101.895 67.5027 101.055 66.3836 101.055 65.0021H99.7007C99.7684 66.9224 101.082 68 103.56 68C105.89 68 107 67.0744 107 65.5133C107 64.0351 105.998 63.4134 104.021 62.543C102.274 61.7832 101.326 61.3688 101.326 60.2221Z" fill="white"/>
</svg>
