<svg width="31" height="30" viewBox="0 0 31 30" fill="none" xmlns="http://www.w3.org/2000/svg">
<path fill-rule="evenodd" clip-rule="evenodd" d="M3.54688 11.6225C3.54688 11.3194 3.79257 11.0737 4.09566 11.0737H27.2301C27.5332 11.0737 27.7789 11.3194 27.7789 11.6225C27.7789 11.9256 27.5332 12.1713 27.2301 12.1713H4.09566C3.79257 12.1713 3.54688 11.9256 3.54688 11.6225Z" fill="#213D37"/>
<path fill-rule="evenodd" clip-rule="evenodd" d="M20.874 16.6914C20.874 16.3883 21.1197 16.1426 21.4228 16.1426H21.4348C21.7379 16.1426 21.9836 16.3883 21.9836 16.6914C21.9836 16.9944 21.7379 17.2401 21.4348 17.2401H21.4228C21.1197 17.2401 20.874 16.9944 20.874 16.6914Z" fill="#213D37"/>
<path fill-rule="evenodd" clip-rule="evenodd" d="M15.1143 16.6914C15.1143 16.3883 15.36 16.1426 15.663 16.1426H15.6751C15.9781 16.1426 16.2238 16.3883 16.2238 16.6914C16.2238 16.9944 15.9781 17.2401 15.6751 17.2401H15.663C15.36 17.2401 15.1143 16.9944 15.1143 16.6914Z" fill="#213D37"/>
<path fill-rule="evenodd" clip-rule="evenodd" d="M9.34277 16.6914C9.34277 16.3883 9.58847 16.1426 9.89155 16.1426H9.90358C10.2067 16.1426 10.4524 16.3883 10.4524 16.6914C10.4524 16.9944 10.2067 17.2401 9.90358 17.2401H9.89155C9.58847 17.2401 9.34277 16.9944 9.34277 16.6914Z" fill="#213D37"/>
<path fill-rule="evenodd" clip-rule="evenodd" d="M20.874 21.7358C20.874 21.4327 21.1197 21.187 21.4228 21.187H21.4348C21.7379 21.187 21.9836 21.4327 21.9836 21.7358C21.9836 22.0389 21.7379 22.2846 21.4348 22.2846H21.4228C21.1197 22.2846 20.874 22.0389 20.874 21.7358Z" fill="#213D37"/>
<path fill-rule="evenodd" clip-rule="evenodd" d="M15.1143 21.7358C15.1143 21.4327 15.36 21.187 15.663 21.187H15.6751C15.9781 21.187 16.2238 21.4327 16.2238 21.7358C16.2238 22.0389 15.9781 22.2846 15.6751 22.2846H15.663C15.36 22.2846 15.1143 22.0389 15.1143 21.7358Z" fill="#213D37"/>
<path fill-rule="evenodd" clip-rule="evenodd" d="M9.34277 21.7358C9.34277 21.4327 9.58847 21.187 9.89155 21.187H9.90358C10.2067 21.187 10.4524 21.4327 10.4524 21.7358C10.4524 22.0389 10.2067 22.2846 9.90358 22.2846H9.89155C9.58847 22.2846 9.34277 22.0389 9.34277 21.7358Z" fill="#213D37"/>
<path fill-rule="evenodd" clip-rule="evenodd" d="M20.9057 1.46338C21.2088 1.46338 21.4545 1.70908 21.4545 2.01216V6.2834C21.4545 6.58648 21.2088 6.83218 20.9057 6.83218C20.6026 6.83218 20.3569 6.58648 20.3569 6.2834V2.01216C20.3569 1.70908 20.6026 1.46338 20.9057 1.46338Z" fill="#213D37"/>
<path fill-rule="evenodd" clip-rule="evenodd" d="M10.4204 1.46338C10.7234 1.46338 10.9691 1.70908 10.9691 2.01216V6.2834C10.9691 6.58648 10.7234 6.83218 10.4204 6.83218C10.1173 6.83218 9.87158 6.58648 9.87158 6.2834V2.01216C9.87158 1.70908 10.1173 1.46338 10.4204 1.46338Z" fill="#213D37"/>
<path fill-rule="evenodd" clip-rule="evenodd" d="M5.26428 5.21377C6.46471 4.07264 8.16328 3.51318 10.168 3.51318H21.158C23.1682 3.51318 24.8674 4.07239 26.0653 5.2143C27.2672 6.36013 27.8934 8.02482 27.8872 10.0891C27.8872 10.0894 27.8872 10.0897 27.8872 10.09L27.8872 21.9324C27.8872 23.9967 27.2579 25.6638 26.0551 26.8123C24.8561 27.9571 23.1571 28.5198 21.146 28.5198H10.168C8.15999 28.5198 6.46024 27.9462 5.26045 26.7834C4.05793 25.6179 3.42676 23.9275 3.42676 21.8342V10.0883C3.42676 8.0232 4.05961 6.35893 5.26428 5.21377ZM6.02048 6.00926C5.08185 6.90152 4.52432 8.25044 4.52432 10.0883V21.8342C4.52432 23.7054 5.08353 25.0834 6.02432 25.9952C6.96783 26.9097 8.36429 27.4223 10.168 27.4223H21.146C22.9585 27.4223 24.3558 26.9173 25.2971 26.0185C26.2346 25.1234 26.7896 23.7712 26.7896 21.9324V10.0883L26.7896 10.0866C26.7953 8.24833 26.2431 6.90016 25.3079 6.00873C24.3685 5.11321 22.9715 4.61074 21.158 4.61074H10.168C8.361 4.61074 6.96335 5.11296 6.02048 6.00926Z" fill="#213D37"/>
</svg>
