<svg width="24" height="28" viewBox="0 0 24 28" fill="none" xmlns="http://www.w3.org/2000/svg">
<path fill-rule="evenodd" clip-rule="evenodd" d="M0.446385 11.7634V11.7986C0.553156 14.8325 1.61863 17.7584 3.49467 20.1691L3.49609 20.1709C5.61778 22.9576 8.22149 25.3553 11.1881 27.2545C11.1966 27.2599 11.2047 27.2659 11.2124 27.2724C11.6646 27.6571 12.3353 27.6571 12.7876 27.2724C12.7954 27.2657 12.8038 27.2596 12.8125 27.254C14.8025 25.9905 16.6374 24.5049 18.2804 22.8269C21.1557 19.8425 23.4743 16.0501 23.5535 11.9707V11.841C23.5752 5.56521 18.4201 0.460421 12.0392 0.439099C5.65848 0.417777 0.468268 5.4878 0.446385 11.7634ZM1.29486e-06 11.7623C0.0225179 5.24404 5.41334 -0.0220761 12.0407 6.95922e-05C18.6679 0.0222146 24.0221 5.32387 23.9999 11.8418C23.9999 11.842 23.9999 11.8422 23.9999 11.8425L23.9999 11.9729L23.9999 11.977C23.9184 16.2132 21.5163 20.1067 18.6039 23.1295L18.6026 23.1308C16.939 24.8299 15.0816 26.3345 13.0673 27.6148C12.4516 28.1285 11.5479 28.1284 10.9323 27.6145C7.92721 25.6888 5.28949 23.2586 3.13946 20.435C1.20668 17.9509 0.10933 14.936 0.000131596 11.8099C4.38654e-05 11.8074 0 11.8049 0 11.8024V11.763L1.29486e-06 11.7623Z" fill="#CBBDAE"/>
<path fill-rule="evenodd" clip-rule="evenodd" d="M12 8.44665C10.0375 8.44665 8.44665 10.0375 8.44665 12C8.44665 13.9625 10.0375 15.5533 12 15.5533C13.9625 15.5533 15.5533 13.9625 15.5533 12C15.5533 10.0375 13.9625 8.44665 12 8.44665ZM8 12C8 9.79086 9.79086 8 12 8C14.2091 8 16 9.79086 16 12C16 14.2091 14.2091 16 12 16C9.79086 16 8 14.2091 8 12Z" fill="#CBBDAE"/>
</svg>
