<svg width="31" height="30" viewBox="0 0 31 30" fill="none" xmlns="http://www.w3.org/2000/svg">
<path fill-rule="evenodd" clip-rule="evenodd" d="M5.29339 4.24917C6.51251 2.94124 8.25843 2.19531 10.3549 2.19531H21.6068C23.7087 2.19531 25.4552 2.94101 26.6735 4.24938C27.8877 5.55333 28.5362 7.37148 28.5362 9.44925V20.0508C28.5362 22.1286 27.8877 23.9468 26.6733 25.2507C25.4549 26.5591 23.708 27.3048 21.6055 27.3048H10.3549C8.25295 27.3048 6.50672 26.5591 5.28876 25.2506C4.07493 23.9467 3.42676 22.1285 3.42676 20.0508V9.44925C3.42676 7.37087 4.07826 5.55282 5.29339 4.24917ZM6.09626 4.99753C5.10197 6.06424 4.52432 7.59877 4.52432 9.44925V20.0508C4.52432 21.902 5.09946 23.4364 6.09212 24.5028C7.08066 25.5648 8.52412 26.2072 10.3549 26.2072H21.6055C23.437 26.2072 24.8811 25.5647 25.8701 24.5027C26.8632 23.4363 27.4387 21.9019 27.4387 20.0508V9.44925C27.4387 7.59816 26.8632 6.06373 25.8702 4.99732C24.8814 3.93533 23.4376 3.29287 21.6068 3.29287H10.3549C8.53032 3.29287 7.08656 3.93509 6.09626 4.99753Z" fill="#213D37"/>
<path fill-rule="evenodd" clip-rule="evenodd" d="M11.88 12.8949C10.857 12.8949 10.0263 13.7261 10.0263 14.7499C10.0263 15.7737 10.857 16.6049 11.88 16.6049C12.9045 16.6049 13.735 15.7735 13.735 14.7499C13.735 13.7263 12.9045 12.8949 11.88 12.8949ZM8.92871 14.7499C8.92871 13.1207 10.25 11.7974 11.88 11.7974C13.511 11.7974 14.8325 13.1205 14.8325 14.7499C14.8325 16.3793 13.511 17.7025 11.88 17.7025C10.25 17.7025 8.92871 16.3791 8.92871 14.7499Z" fill="#213D37"/>
<path fill-rule="evenodd" clip-rule="evenodd" d="M13.7349 14.75C13.7349 14.4469 13.9806 14.2012 14.2836 14.2012H22.484C22.7871 14.2012 23.0328 14.4469 23.0328 14.75V17.1537C23.0328 17.4568 22.7871 17.7025 22.484 17.7025C22.1809 17.7025 21.9352 17.4568 21.9352 17.1537V15.2987H14.2836C13.9806 15.2987 13.7349 15.053 13.7349 14.75Z" fill="#213D37"/>
<path fill-rule="evenodd" clip-rule="evenodd" d="M18.8125 14.2007C19.1155 14.2007 19.3612 14.4464 19.3612 14.7495V17.1533C19.3612 17.4563 19.1155 17.702 18.8125 17.702C18.5094 17.702 18.2637 17.4563 18.2637 17.1533V14.7495C18.2637 14.4464 18.5094 14.2007 18.8125 14.2007Z" fill="#213D37"/>
</svg>
