<svg width="40" height="40" viewBox="0 0 40 40" fill="none" xmlns="http://www.w3.org/2000/svg">
<path d="M20.0005 17.9329C21.9072 17.9329 23.5079 19.2249 23.9601 20.9718C24.5286 23.1621 24.4518 25.5625 26.9508 26.809C29.1689 27.5638 30.008 28.5124 30.008 31.0556C30.008 33.0854 28.2713 35.243 26.0321 35.5123C23.5283 35.8883 21.5794 35.3967 19.9998 34.4964C18.4202 35.3967 16.4706 35.889 13.9702 35.5123C11.7296 35.243 9.9936 33.0779 9.9936 31.0556C9.9936 28.5668 10.8892 27.5134 13.1032 26.792C15.828 25.4 15.4622 22.9602 16.0701 20.8644C16.32 20.0164 16.8382 19.2723 17.5468 18.7437C18.2555 18.2152 19.1164 17.9307 20.0005 17.9329ZM32.4832 16.4206C31.808 15.8338 29.052 18.1247 28.185 19.2576C27.658 19.8621 27.3302 20.693 27.3302 21.6097C27.3302 23.4532 28.6494 24.9478 30.2726 24.9478C31.5074 24.9478 32.5642 24.089 33.0014 22.8677C33.8507 20.6713 33.8976 17.6487 32.4832 16.4206ZM7.51636 16.4206C6.104 17.6487 6.14956 20.6713 7.00024 22.8677C7.43748 24.089 8.49352 24.9478 9.72772 24.9478C11.3522 24.9478 12.6701 23.4532 12.6701 21.6097C12.6701 20.693 12.343 19.8621 11.816 19.2576C10.9483 18.1247 8.19296 15.8338 7.51636 16.4206ZM23.6283 4.37983C30.4881 5.54399 30.0067 17.0972 24.5143 16.1663C22.9299 15.897 21.7535 14.454 21.5747 12.7302C21.3931 10.9772 20.9844 3.93239 23.6283 4.37983ZM16.3727 4.37983C19.0172 3.93171 18.6078 10.9765 18.4263 12.7296C18.2474 14.454 17.0724 15.8963 15.488 16.1656C9.99428 17.0979 9.51352 5.54399 16.3727 4.37983Z" fill="#CBBDAE"/>
</svg>
