<svg width="40" height="40" viewBox="0 0 40 40" fill="none" xmlns="http://www.w3.org/2000/svg">
<path d="M38.2057 14.075C27.963 4.47324 12.0328 4.47676 1.79422 14.075C1.40919 14.4359 1.40167 15.0471 1.77398 15.4215L3.75348 17.4119C4.10845 17.7693 4.67964 17.777 5.04848 17.4342C13.4845 9.60137 26.5143 9.59961 34.952 17.4342C35.3208 17.777 35.892 17.7688 36.247 17.4119L38.2265 15.4215C38.5982 15.0471 38.5907 14.4359 38.2057 14.075ZM19.9999 25.625C17.9563 25.625 16.2999 27.3037 16.2999 29.375C16.2999 31.4463 17.9563 33.125 19.9999 33.125C22.0436 33.125 23.6999 31.4463 23.6999 29.375C23.6999 27.3037 22.0436 25.625 19.9999 25.625ZM31.7168 20.7272C25.0533 14.7547 14.939 14.7611 8.28309 20.7272C7.88418 21.0846 7.87147 21.7051 8.25014 22.0836L10.2412 24.0752C10.5881 24.4221 11.1465 24.4455 11.516 24.1221C16.3693 19.8699 23.6416 19.8793 28.4834 24.1221C28.8528 24.4455 29.4112 24.4227 29.7581 24.0752L31.7492 22.0836C32.1284 21.7051 32.1151 21.084 31.7168 20.7272Z" fill="#CBBDAE"/>
</svg>
